<svg width="18" height="18" viewBox="0 0 18 18" fill="none" xmlns="http://www.w3.org/2000/svg">
<g id="border_color_24px">
<path id="icon/editor/border_color_24px" fill-rule="evenodd" clip-rule="evenodd" d="M15.5325 3.03155C15.825 2.73908 15.825 2.26663 15.5325 1.97416L13.7775 0.219341C13.6374 0.0789165 13.4471 0 13.2487 0C13.0504 0 12.8601 0.0789165 12.72 0.219341L11.25 1.68919L14.0625 4.5014L15.5325 3.03155ZM13.3125 5.25132L10.5 2.43911L3.1125 9.82585C3.0375 9.90084 3 9.99083 3 10.0958V12.3756C3 12.5856 3.165 12.7505 3.375 12.7505H5.655C5.7525 12.7505 5.85 12.713 5.9175 12.6381L13.3125 5.25132ZM16.5 15.0003H1.5C0.675 15.0003 0 15.6752 0 16.5002C0 17.3251 0.675 18 1.5 18H16.5C17.325 18 18 17.3251 18 16.5002C18 15.6752 17.325 15.0003 16.5 15.0003Z" fill="white" fill-opacity="0.9"/>
</g>
</svg>
