<svg width="50" height="50" viewBox="0 0 50 50" fill="none" xmlns="http://www.w3.org/2000/svg">
<g id="file_copy_24px">
<path id="icon/content/file_copy_24px" fill-rule="evenodd" clip-rule="evenodd" d="M32.2916 2.08337H9.37492C7.08325 2.08337 5.20825 3.95837 5.20825 6.25004V33.3334C5.20825 34.4792 6.14575 35.4167 7.29159 35.4167C8.43742 35.4167 9.37492 34.4792 9.37492 33.3334V8.33337C9.37492 7.18754 10.3124 6.25004 11.4583 6.25004H32.2916C33.4374 6.25004 34.3749 5.31254 34.3749 4.16671C34.3749 3.02087 33.4374 2.08337 32.2916 2.08337ZM33.5208 11.6459L43.5833 21.7084C44.3541 22.4792 44.7916 23.5417 44.7916 24.6459V43.75C44.7916 46.0417 42.9166 47.9167 40.6249 47.9167H17.6874C15.3958 47.9167 13.5416 46.0417 13.5416 43.75L13.5624 14.5834C13.5624 12.2917 15.4166 10.4167 17.7083 10.4167H30.5624C31.6666 10.4167 32.7291 10.8542 33.5208 11.6459ZM41.6666 25H32.2916C31.1458 25 30.2083 24.0625 30.2083 22.9167V13.5417L41.6666 25Z" fill="#DDDDDD"/>
</g>
</svg>
