<svg width="48" height="48" viewBox="0 0 48 48" fill="none" xmlns="http://www.w3.org/2000/svg">
<g id="format_color_text_24px">
<path id="Shape" d="M4 37H44C46.2 37 48 38.8 48 41C48 43.2 46.2 45 44 45H4C1.8 45 0 43.2 0 41C0 38.8 1.8 37 4 37Z" fill="white"/>
<path id="Subtract" fill-rule="evenodd" clip-rule="evenodd" d="M12.12 28.16L21.26 4.86C21.7 3.74 22.8 3 24 3C25.2 3 26.28 3.74 26.74 4.86L35.88 28.16C36.42 29.52 35.4 31 33.94 31C33.06 31 32.28 30.46 31.98 29.64L30.24 25H17.74L16.02 29.64C15.7 30.46 14.92 31 14.06 31C12.58 31 11.58 29.52 12.12 28.16ZM24 8.34003L19.24 21H28.76L24 8.34003Z" fill="#F8F8F8"/>
</g>
</svg>
