<svg width="60" height="60" viewBox="0 0 60 60" fill="none" xmlns="http://www.w3.org/2000/svg">
<g id="unarchive_24px">
<path id="icon/content/unarchive_24px" fill-rule="evenodd" clip-rule="evenodd" d="M51.375 13.05L47.9 8.85C47.2 8.025 46.175 7.5 45 7.5H15C13.825 7.5 12.8 8.025 12.125 8.875L8.65 13.05C7.925 13.925 7.5 15.025 7.5 16.25V47.5C7.5 50.25 9.725 52.5 12.5 52.5H47.5C50.25 52.5 52.5 50.25 52.5 47.5V16.25C52.5 15.025 52.075 13.925 51.375 13.05ZM30.875 24.625L43.75 37.5H35V42.5H25V37.5H16.25L29.125 24.625C29.6 24.15 30.4 24.15 30.875 24.625ZM14.85 10L12.8 12.5H47.175L44.85 10H14.85Z" fill="#EBEBEB"/>
</g>
</svg>
